<svg xmlns="http://www.w3.org/2000/svg" fill="none" viewBox="0 0 128 48"><path d="M28.2786 19.0347C28.677 19.0347 29 19.3581 29 19.757V28.6724C29 28.8635 28.9239 29.0473 28.7885 29.183L18.14 39.8472C18.0045 39.9829 17.821 40.0591 17.6295 40.0591H8.72669C8.32831 40.059 8.00534 39.7356 8.00534 39.3366V30.4212C8.00535 30.2295 8.08142 30.0457 8.21688 29.9101L19.0769 19.0347H28.2786Z" fill="#ffffff"/><path d="M18.3555 7.94141C18.7539 7.94141 19.0769 8.26483 19.0769 8.66378V19.034H8.72135C8.32297 19.034 8 18.7105 8 18.3116V8.66378C8.00002 8.26484 8.32298 7.94142 8.72135 7.94141H18.3555Z" fill="#ffffff"/><path d="M44.4849 22.3293V11.3492H47.5907V22.3293H44.4849Z" fill="#ffffff"/><path d="M49.8096 16.9969V16.6529C49.8096 14.7353 50.4912 13.3241 51.8546 12.4195C53.2179 11.5148 54.9667 11.0625 57.101 11.0625C59.2288 11.0625 60.9808 11.5148 62.3569 12.4195C63.7394 13.3241 64.4306 14.7353 64.4306 16.6529V16.9969C64.4306 18.9336 63.7394 20.3543 62.3569 21.259C60.9808 22.1637 59.2288 22.616 57.101 22.616C54.9731 22.616 53.2243 22.1637 51.8546 21.259C50.4912 20.3543 49.8096 18.9336 49.8096 16.9969ZM52.9536 17.2454C52.9536 18.3858 53.3294 19.1821 54.0812 19.6344C54.8393 20.0868 55.8459 20.3129 57.101 20.3129C58.3624 20.3129 59.3722 20.0868 60.1303 19.6344C60.8948 19.1821 61.277 18.3858 61.277 17.2454V16.4235C61.277 15.2832 60.8948 14.4932 60.1303 14.0536C59.3722 13.6076 58.3624 13.3847 57.101 13.3847C55.8459 13.3783 54.8393 13.5981 54.0812 14.044C53.3294 14.49 52.9536 15.2832 52.9536 16.4235V17.2454Z" fill="#ffffff"/><path d="M65.0249 13.7V11.3492H77.964V13.7H73.033V22.3293H69.9655V13.7H65.0249Z" fill="#ffffff"/><path d="M76.8764 22.3293L82.8682 11.311H85.8497L91.8701 22.3293H88.5446L84.7699 15.1048C84.6552 14.8563 84.5533 14.611 84.4641 14.369C84.3812 14.1269 84.2984 13.9103 84.2156 13.7191H84.1296C84.0468 13.9103 83.9608 14.13 83.8716 14.3785C83.7888 14.6206 83.6932 14.8627 83.5849 15.1048L79.7815 22.3293H76.8764ZM79.6668 20.2938L80.6225 18.0672H87.9234L88.8886 20.2938H79.6668Z" fill="#ffffff"/><path d="M44.4658 37.7802V26.8001H47.5429L53.7258 33.241C53.8914 33.4385 54.0571 33.6774 54.2227 33.9577C54.3884 34.2317 54.5094 34.4419 54.5859 34.5884H54.7101C54.6719 34.4228 54.64 34.2508 54.6145 34.0724C54.5891 33.8876 54.5763 33.7093 54.5763 33.5372V26.8001H57.2234V37.7802H54.0794L48.0112 31.6356C47.7946 31.368 47.6034 31.0749 47.4378 30.7564C47.2722 30.4378 47.1575 30.2085 47.0938 30.0683H46.96C46.9919 30.2276 47.0205 30.4124 47.046 30.6226C47.0779 30.8265 47.0938 31.008 47.0938 31.1673V37.7802H44.4658Z" fill="#ffffff"/><path d="M58.2573 37.7802L64.249 26.7619H67.2306L73.251 37.7802H69.9254L66.1507 30.5557C66.036 30.3072 65.9341 30.062 65.8449 29.8199C65.7621 29.5778 65.6793 29.3612 65.5965 29.17H65.5104C65.4276 29.3612 65.3416 29.581 65.2524 29.8294C65.1696 30.0715 65.074 30.3136 64.9657 30.5557L61.1624 37.7802H58.2573ZM61.0477 35.7447L62.0033 33.5181H69.3043L70.2694 35.7447H61.0477Z" fill="#ffffff"/><path d="M74.3422 37.7802V26.8001H77.9162L82.2643 34.1202C82.3599 34.2794 82.4618 34.4546 82.5701 34.6458C82.6784 34.8305 82.7581 34.9834 82.809 35.1045H82.8664C82.9237 34.9834 83.0001 34.8305 83.0957 34.6458C83.1913 34.4546 83.2837 34.2794 83.3728 34.1202L87.7974 26.8001H91.4574V37.7802H88.4281V31.1195C88.4281 30.9602 88.4408 30.7882 88.4663 30.6035C88.4918 30.4187 88.5109 30.2467 88.5237 30.0874H88.4185C88.3803 30.2467 88.3293 30.4187 88.2656 30.6035C88.2019 30.7882 88.1255 30.9602 88.0363 31.1195L83.9462 37.7802H81.3565L77.2951 31.1291C77.2059 30.9634 77.1263 30.7914 77.0562 30.613C76.9925 30.4283 76.9383 30.2531 76.8937 30.0874H76.7886C76.8077 30.2531 76.83 30.4283 76.8555 30.613C76.881 30.7978 76.8937 30.9698 76.8937 31.1291V37.7802H74.3422Z" fill="#ffffff"/><path d="M94.2592 37.7802V26.8001H105.077V29.1414H97.2885V31.0048H104.102V33.2697H97.2885V35.458H105.182V37.7802H94.2592Z" fill="#ffffff"/><path d="M106.292 34.4833L106.283 34.2062H109.369L109.379 34.426C109.392 34.8974 109.678 35.2446 110.239 35.4676C110.8 35.6842 111.609 35.7925 112.666 35.7925C113.724 35.7925 114.53 35.7033 115.084 35.5249C115.638 35.3402 115.915 35.0854 115.915 34.7604C115.915 34.4419 115.677 34.1966 115.199 34.0246C114.721 33.8462 113.59 33.6201 111.806 33.3461C109.991 33.0722 108.659 32.6708 107.812 32.142C106.971 31.6133 106.55 30.8647 106.55 29.8963C106.55 28.8706 107.073 28.0615 108.118 27.469C109.169 26.8765 110.64 26.5803 112.533 26.5803C114.386 26.5803 115.858 26.9148 116.947 27.5837C118.037 28.2463 118.588 29.0681 118.601 30.0492L118.61 30.2881H115.581V30.1066C115.568 29.6925 115.313 29.3739 114.816 29.1509C114.326 28.9216 113.568 28.8069 112.542 28.8069C111.542 28.8069 110.8 28.8834 110.315 29.0363C109.831 29.1892 109.589 29.4281 109.589 29.753C109.589 30.0014 109.838 30.2117 110.335 30.3837C110.832 30.5493 111.934 30.7659 113.641 31.0335C115.444 31.3393 116.779 31.7279 117.645 32.1994C118.512 32.6644 118.945 33.4321 118.945 34.5024C118.945 35.6237 118.381 36.4869 117.253 37.0922C116.126 37.6974 114.603 38 112.685 38C110.774 38 109.232 37.7038 108.06 37.1113C106.894 36.5188 106.305 35.6428 106.292 34.4833Z" fill="#ffffff"/></svg>
