<svg xmlns="http://www.w3.org/2000/svg" fill="none" viewBox="6 6 26 36"><path d="M28.2786 19.0347C28.677 19.0347 29 19.3581 29 19.757V28.6724C29 28.8635 28.9239 29.0473 28.7885 29.183L18.14 39.8472C18.0045 39.9829 17.821 40.0591 17.6295 40.0591H8.72669C8.32831 40.059 8.00534 39.7356 8.00534 39.3366V30.4212C8.00535 30.2295 8.08142 30.0457 8.21688 29.9101L19.0769 19.0347H28.2786Z" fill="#ffffff"/><path d="M18.3555 7.94141C18.7539 7.94141 19.0769 8.26483 19.0769 8.66378V19.034H8.72135C8.32297 19.034 8 18.7105 8 18.3116V8.66378C8.00002 8.26484 8.32298 7.94142 8.72135 7.94141H18.3555Z" fill="#ffffff"/></svg>
