<svg width="52" height="52" viewBox="0 0 52 52" fill="none" xmlns="http://www.w3.org/2000/svg">





<path d="M1.18457 21.1245V33.376L10.155 38.913V26.6615L1.18457 21.1245Z" fill="white"/>
<path d="M21.2465 19.6606V32.1418L10.1548 38.9126V26.5204L21.2465 19.6606Z" fill="black"/>
<path d="M28.605 15.3889L30.2394 16.3947C31.5932 17.2256 33.0553 17.6552 34.611 17.6804C35.1751 17.6893 35.7258 17.6404 36.2617 17.5382V10.7007L28.6035 15.3904L28.605 15.3889Z" fill="black"/>
<path d="M38.5908 12.1227L36.2632 10.6992V17.5367C37.2088 17.356 38.1113 17.0049 38.9604 16.4821C41.2182 15.0956 41.0995 13.6469 38.5923 12.1227H38.5908Z" fill="white"/>
<path d="M51.682 16.1045C51.636 18.1383 50.8879 20.2787 48.1535 21.9525V21.9658C45.6137 23.5182 42.9565 24.521 40.1821 24.9713V37.2317C42.958 36.7814 45.6137 35.7786 48.1535 34.2263V34.2129C50.9947 32.4739 51.6909 30.2313 51.6835 28.1279L51.6805 16.106L51.682 16.1045Z" fill="black"/>
<path d="M36.2023 37.4998C36.4353 37.5057 36.6684 37.5057 36.9 37.5042V25.2438C36.6684 25.2453 36.4353 25.2438 36.2023 25.2394C31.9731 25.1387 27.8271 23.8411 23.7761 21.3585L21.2451 19.8091V32.0695L23.7761 33.6189C27.8271 36.1015 31.9731 37.3991 36.2023 37.4998Z" fill="white"/>
<path d="M38.5415 25.1712V37.4316C39.0937 37.3857 39.64 37.3175 40.1818 37.2301V24.9697C39.64 25.0571 39.0922 25.1253 38.5415 25.1712Z" fill="white"/>
<path d="M36.8999 25.244V37.5044C37.4506 37.4999 37.9984 37.4762 38.5402 37.4318V25.1714C37.9984 25.2158 37.4506 25.2395 36.8999 25.244Z" fill="black"/>
<path d="M48.1537 22.0502C44.4233 24.3313 40.4435 25.426 36.2025 25.3252C31.9734 25.2245 27.8273 23.9269 23.7763 21.4443L21.2454 19.8949L10.1626 26.6865L1.13574 21.157L34.5399 0.694824L46.0992 7.77526C50.3165 10.3586 51.3378 12.3198 51.6109 14.7387C51.8841 17.1576 51.553 19.9586 48.1552 22.0383V22.0517L48.1537 22.0502ZM28.6007 15.386L30.2395 16.3932C31.5933 17.2242 33.0555 17.6538 34.6112 17.679C36.1669 17.7042 37.629 17.3013 38.9591 16.4821C41.2169 15.0957 41.0982 13.647 38.591 12.1228L36.2634 10.6993L28.5888 15.3993L28.6007 15.386Z" fill="white"/>
<path d="M52.2728 16.0895C52.2773 15.6392 52.2565 15.1696 52.2001 14.6734C51.9106 12.1167 50.8418 9.98667 46.4093 7.27152L34.5398 0L0 21.1569L0.0653151 21.1969V33.7476L10.6449 39.9482L10.6805 40L21.2615 32.7522L23.4615 34.1016C27.5837 36.6316 31.8574 37.9662 36.1623 38.0699C36.3419 38.0744 36.5215 38.0758 36.7011 38.0758C40.8249 38.0758 44.7646 36.9427 48.4178 34.706L48.7013 34.5193V34.5149C51.1996 32.8973 52.2268 31.0176 52.2253 28.1055L52.2773 16.088H52.2713L52.2728 16.0895ZM34.5398 1.39091L45.7873 8.28174C49.8265 10.7554 50.7632 12.5463 51.0185 14.8067C51.0645 15.214 51.0957 15.6436 51.0912 16.085H51.0897V16.2524C51.0378 18.0255 50.3876 19.9778 47.8418 21.5346L47.5583 21.7079V21.7183C44.0179 23.8157 40.2029 24.8319 36.2157 24.7356C32.1157 24.6378 28.035 23.361 24.0864 20.9421L21.2452 19.2016L10.1624 25.9932L2.2697 21.1569L34.5398 1.39091ZM10.7458 27.0256L20.6529 20.9554V31.7301L10.7013 38.5469L10.7458 27.0256ZM1.25286 33.0692V21.9242L9.55826 27.0123L9.5167 37.9114L1.25286 33.0677V33.0692ZM47.7973 33.6854L47.5597 33.8409C44.0134 35.9562 40.1895 36.9812 36.192 36.8849C32.0994 36.7871 28.0261 35.5118 24.0834 33.0914L21.8405 31.7153V20.9554L23.4659 21.9508C27.5956 24.4808 31.8752 25.8154 36.1875 25.9191C40.5146 26.0228 44.6443 24.8911 48.4623 22.5567L48.7458 22.37V22.3641C49.7226 21.7242 50.4989 20.9806 51.0719 20.1437L51.0378 28.104C51.0378 30.2607 50.4871 32.0353 47.7958 33.6839L47.7973 33.6854Z" fill="black"/>
<path d="M34.7314 18.2713C34.7804 18.2713 34.8293 18.2713 34.8783 18.2713C36.4934 18.2713 38.0135 17.8388 39.3999 16.9856C40.6736 16.2035 41.2911 15.3784 41.2896 14.46C41.2881 13.4691 40.5489 12.5389 39.0303 11.616L36.3925 10.0029L27.5957 15.3829L30.0584 16.8967C31.4983 17.781 33.0703 18.2432 34.7314 18.2699V18.2713ZM36.3925 11.3938L38.4113 12.6292C39.5009 13.2913 40.1006 13.9431 40.1021 14.4645C40.1021 15.0422 39.3821 15.6065 38.7765 15.9783C37.5429 16.7367 36.1891 17.1071 34.7507 17.0878C33.3063 17.0641 31.9362 16.6612 30.6804 15.8909L29.8639 15.3888L36.3925 11.3953V11.3938Z" fill="black"/>
</svg>
