<svg width="186" height="40" viewBox="0 0 186 40" fill="none" xmlns="http://www.w3.org/2000/svg">
<path d="M82.2397 25.1123H72.3837V19.7043H81.5677C82.6343 19.7043 83.3917 19.5443 83.8397 19.2243C84.309 18.9043 84.5437 18.1896 84.5437 17.0803C84.5437 15.9923 84.309 15.2883 83.8397 14.9683C83.3917 14.6483 82.6343 14.4883 81.5677 14.4883H72.3837V9.08025H82.2397C83.9463 9.08025 85.4183 9.40025 86.6557 10.0403C87.893 10.6589 88.8423 11.5656 89.5037 12.7603C90.1863 13.9336 90.5277 15.3736 90.5277 17.0803C90.5277 18.7656 90.1863 20.2163 89.5037 21.4323C88.8423 22.6269 87.893 23.5443 86.6557 24.1843C85.4183 24.8029 83.9463 25.1123 82.2397 25.1123ZM76.3837 30.5203H70.3677V9.08025H76.3837V30.5203Z" fill="black"/>
<path d="M103.997 30.8403C101.523 30.8403 99.3892 30.3923 97.5972 29.4963C95.8265 28.5789 94.4718 27.2989 93.5332 25.6563C92.5945 23.9923 92.1252 22.0403 92.1252 19.8003C92.1252 17.5603 92.5945 15.6189 93.5332 13.9763C94.4718 12.3123 95.8265 11.0323 97.5972 10.1363C99.3892 9.21892 101.523 8.76025 103.997 8.76025C106.557 8.76025 108.723 9.21892 110.493 10.1363C112.285 11.0323 113.651 12.3123 114.589 13.9763C115.528 15.6189 115.997 17.5603 115.997 19.8003C115.997 22.0403 115.528 23.9923 114.589 25.6563C113.651 27.2989 112.285 28.5789 110.493 29.4963C108.723 30.3923 106.557 30.8403 103.997 30.8403ZM103.997 25.0803C105.448 25.0803 106.579 24.9416 107.389 24.6643C108.2 24.3656 108.765 23.8323 109.085 23.0643C109.427 22.2963 109.597 21.2083 109.597 19.8003C109.597 18.3709 109.427 17.2829 109.085 16.5363C108.765 15.7683 108.2 15.2456 107.389 14.9683C106.579 14.6696 105.448 14.5203 103.997 14.5203C102.547 14.5203 101.427 14.6696 100.637 14.9683C99.8478 15.2456 99.2932 15.7683 98.9732 16.5363C98.6745 17.2829 98.5252 18.3709 98.5252 19.8003C98.5252 21.2083 98.6745 22.2963 98.9732 23.0643C99.2932 23.8323 99.8478 24.3656 100.637 24.6643C101.427 24.9416 102.547 25.0803 103.997 25.0803Z" fill="black"/>
<path d="M129.793 30.8403C127.319 30.8403 125.185 30.3923 123.393 29.4963C121.623 28.5789 120.268 27.2989 119.329 25.6563C118.391 23.9923 117.921 22.0403 117.921 19.8003C117.921 17.5603 118.391 15.6189 119.329 13.9763C120.268 12.3123 121.623 11.0323 123.393 10.1363C125.185 9.21892 127.319 8.76025 129.793 8.76025C132.353 8.76025 134.519 9.21892 136.289 10.1363C138.081 11.0323 139.447 12.3123 140.385 13.9763C141.324 15.6189 141.793 17.5603 141.793 19.8003C141.793 22.0403 141.324 23.9923 140.385 25.6563C139.447 27.2989 138.081 28.5789 136.289 29.4963C134.519 30.3923 132.353 30.8403 129.793 30.8403ZM129.793 25.0803C131.244 25.0803 132.375 24.9416 133.185 24.6643C133.996 24.3656 134.561 23.8323 134.881 23.0643C135.223 22.2963 135.393 21.2083 135.393 19.8003C135.393 18.3709 135.223 17.2829 134.881 16.5363C134.561 15.7683 133.996 15.2456 133.185 14.9683C132.375 14.6696 131.244 14.5203 129.793 14.5203C128.343 14.5203 127.223 14.6696 126.433 14.9683C125.644 15.2456 125.089 15.7683 124.769 16.5363C124.471 17.2829 124.321 18.3709 124.321 19.8003C124.321 21.2083 124.471 22.2963 124.769 23.0643C125.089 23.8323 125.644 24.3656 126.433 24.6643C127.223 24.9416 128.343 25.0803 129.793 25.0803Z" fill="black"/>
<path d="M150.054 30.5203H144.038V9.08025H150.054V30.5203ZM162.438 30.5203H145.702V25.1123H162.438V30.5203Z" fill="black"/>
<path d="M175.078 30.8403C172.902 30.8403 171.024 30.5736 169.446 30.0403C167.867 29.4856 166.651 28.6429 165.798 27.5123C164.944 26.3603 164.518 24.8776 164.518 23.0643V22.8723H170.534V23.5443C170.534 24.0136 170.63 24.3869 170.822 24.6643C171.035 24.9203 171.462 25.1016 172.102 25.2083C172.742 25.3149 173.734 25.3683 175.078 25.3683C176.294 25.3683 177.19 25.3363 177.766 25.2723C178.342 25.1869 178.704 25.0589 178.854 24.8883C179.024 24.6963 179.11 24.4403 179.11 24.1203C179.11 23.7363 178.96 23.4483 178.662 23.2563C178.384 23.0643 177.808 22.9149 176.934 22.8083L170.214 21.9123C168.891 21.7203 167.782 21.3683 166.886 20.8563C165.99 20.3229 165.318 19.6296 164.87 18.7763C164.422 17.9229 164.198 16.9203 164.198 15.7683C164.198 14.9149 164.379 14.0723 164.742 13.2403C165.104 12.4083 165.691 11.6616 166.502 11.0003C167.312 10.3176 168.379 9.77359 169.702 9.36825C171.024 8.96292 172.656 8.76025 174.598 8.76025C176.88 8.76025 178.758 9.08025 180.23 9.72025C181.723 10.3389 182.832 11.2349 183.558 12.4083C184.304 13.5603 184.678 14.9363 184.678 16.5363V16.7283H178.662V16.2483C178.662 15.7363 178.544 15.3309 178.31 15.0323C178.096 14.7336 177.648 14.5203 176.966 14.3923C176.304 14.2643 175.302 14.2003 173.958 14.2003C172.934 14.2003 172.155 14.2536 171.622 14.3603C171.088 14.4456 170.715 14.5843 170.502 14.7763C170.31 14.9683 170.214 15.2243 170.214 15.5443C170.214 15.7576 170.256 15.9496 170.342 16.1203C170.448 16.2696 170.608 16.3869 170.822 16.4723C171.056 16.5576 171.366 16.6323 171.75 16.6963L178.47 17.6883C180.219 17.9443 181.574 18.3923 182.534 19.0323C183.494 19.6509 184.166 20.3869 184.55 21.2403C184.934 22.0936 185.126 22.9789 185.126 23.8963C185.126 25.1123 184.784 26.2536 184.102 27.3203C183.44 28.3656 182.374 29.2189 180.902 29.8803C179.43 30.5203 177.488 30.8403 175.078 30.8403Z" fill="black"/>
<path d="M1.18457 21.1245V33.376L10.155 38.913V26.6615L1.18457 21.1245Z" fill="white"/>
<path d="M21.2465 19.6606V32.1418L10.1548 38.9126V26.5204L21.2465 19.6606Z" fill="black"/>
<path d="M28.605 15.3889L30.2394 16.3947C31.5932 17.2256 33.0553 17.6552 34.611 17.6804C35.1751 17.6893 35.7258 17.6404 36.2617 17.5382V10.7007L28.6035 15.3904L28.605 15.3889Z" fill="black"/>
<path d="M38.5908 12.1227L36.2632 10.6992V17.5367C37.2088 17.356 38.1113 17.0049 38.9604 16.4821C41.2182 15.0956 41.0995 13.6469 38.5923 12.1227H38.5908Z" fill="white"/>
<path d="M51.682 16.1045C51.636 18.1383 50.8879 20.2787 48.1535 21.9525V21.9658C45.6137 23.5182 42.9565 24.521 40.1821 24.9713V37.2317C42.958 36.7814 45.6137 35.7786 48.1535 34.2263V34.2129C50.9947 32.4739 51.6909 30.2313 51.6835 28.1279L51.6805 16.106L51.682 16.1045Z" fill="black"/>
<path d="M36.2023 37.4998C36.4353 37.5057 36.6684 37.5057 36.9 37.5042V25.2438C36.6684 25.2453 36.4353 25.2438 36.2023 25.2394C31.9731 25.1387 27.8271 23.8411 23.7761 21.3585L21.2451 19.8091V32.0695L23.7761 33.6189C27.8271 36.1015 31.9731 37.3991 36.2023 37.4998Z" fill="white"/>
<path d="M38.5415 25.1712V37.4316C39.0937 37.3857 39.64 37.3175 40.1818 37.2301V24.9697C39.64 25.0571 39.0922 25.1253 38.5415 25.1712Z" fill="white"/>
<path d="M36.8999 25.244V37.5044C37.4506 37.4999 37.9984 37.4762 38.5402 37.4318V25.1714C37.9984 25.2158 37.4506 25.2395 36.8999 25.244Z" fill="black"/>
<path d="M48.1537 22.0502C44.4233 24.3313 40.4435 25.426 36.2025 25.3252C31.9734 25.2245 27.8273 23.9269 23.7763 21.4443L21.2454 19.8949L10.1626 26.6865L1.13574 21.157L34.5399 0.694824L46.0992 7.77526C50.3165 10.3586 51.3378 12.3198 51.6109 14.7387C51.8841 17.1576 51.553 19.9586 48.1552 22.0383V22.0517L48.1537 22.0502ZM28.6007 15.386L30.2395 16.3932C31.5933 17.2242 33.0555 17.6538 34.6112 17.679C36.1669 17.7042 37.629 17.3013 38.9591 16.4821C41.2169 15.0957 41.0982 13.647 38.591 12.1228L36.2634 10.6993L28.5888 15.3993L28.6007 15.386Z" fill="white"/>
<path d="M52.2728 16.0895C52.2773 15.6392 52.2565 15.1696 52.2001 14.6734C51.9106 12.1167 50.8418 9.98667 46.4093 7.27152L34.5398 0L0 21.1569L0.0653151 21.1969V33.7476L10.6449 39.9482L10.6805 40L21.2615 32.7522L23.4615 34.1016C27.5837 36.6316 31.8574 37.9662 36.1623 38.0699C36.3419 38.0744 36.5215 38.0758 36.7011 38.0758C40.8249 38.0758 44.7646 36.9427 48.4178 34.706L48.7013 34.5193V34.5149C51.1996 32.8973 52.2268 31.0176 52.2253 28.1055L52.2773 16.088H52.2713L52.2728 16.0895ZM34.5398 1.39091L45.7873 8.28174C49.8265 10.7554 50.7632 12.5463 51.0185 14.8067C51.0645 15.214 51.0957 15.6436 51.0912 16.085H51.0897V16.2524C51.0378 18.0255 50.3876 19.9778 47.8418 21.5346L47.5583 21.7079V21.7183C44.0179 23.8157 40.2029 24.8319 36.2157 24.7356C32.1157 24.6378 28.035 23.361 24.0864 20.9421L21.2452 19.2016L10.1624 25.9932L2.2697 21.1569L34.5398 1.39091ZM10.7458 27.0256L20.6529 20.9554V31.7301L10.7013 38.5469L10.7458 27.0256ZM1.25286 33.0692V21.9242L9.55826 27.0123L9.5167 37.9114L1.25286 33.0677V33.0692ZM47.7973 33.6854L47.5597 33.8409C44.0134 35.9562 40.1895 36.9812 36.192 36.8849C32.0994 36.7871 28.0261 35.5118 24.0834 33.0914L21.8405 31.7153V20.9554L23.4659 21.9508C27.5956 24.4808 31.8752 25.8154 36.1875 25.9191C40.5146 26.0228 44.6443 24.8911 48.4623 22.5567L48.7458 22.37V22.3641C49.7226 21.7242 50.4989 20.9806 51.0719 20.1437L51.0378 28.104C51.0378 30.2607 50.4871 32.0353 47.7958 33.6839L47.7973 33.6854Z" fill="black"/>
<path d="M34.7314 18.2713C34.7804 18.2713 34.8293 18.2713 34.8783 18.2713C36.4934 18.2713 38.0135 17.8388 39.3999 16.9856C40.6736 16.2035 41.2911 15.3784 41.2896 14.46C41.2881 13.4691 40.5489 12.5389 39.0303 11.616L36.3925 10.0029L27.5957 15.3829L30.0584 16.8967C31.4983 17.781 33.0703 18.2432 34.7314 18.2699V18.2713ZM36.3925 11.3938L38.4113 12.6292C39.5009 13.2913 40.1006 13.9431 40.1021 14.4645C40.1021 15.0422 39.3821 15.6065 38.7765 15.9783C37.5429 16.7367 36.1891 17.1071 34.7507 17.0878C33.3063 17.0641 31.9362 16.6612 30.6804 15.8909L29.8639 15.3888L36.3925 11.3953V11.3938Z" fill="black"/>
</svg>
