<svg width="256" height="256" viewBox="50 50 265 265" fill="none" xmlns="http://www.w3.org/2000/svg">
<rect width="22.1198" height="22.1198" transform="matrix(-1 0 0 1 231.959 106.912)" fill="#FF0195"/>
<rect width="22.1198" height="22.1198" transform="matrix(-1 0 0 1 231.959 129.032)" fill="#FF0195"/>
<rect width="22.1198" height="22.1198" transform="matrix(-1 0 0 1 231.959 151.152)" fill="#FF0195"/>
<rect width="22.1198" height="22.1198" transform="matrix(-1 0 0 1 231.959 173.271)" fill="#FF0195"/>
<rect width="22.1198" height="22.1198" transform="matrix(-1 0 0 1 231.959 195.392)" fill="#FF0195"/>
<rect width="22.1198" height="22.1198" transform="matrix(-1 0 0 1 231.959 217.512)" fill="#FF0195"/>
<rect width="22.1198" height="22.1198" transform="matrix(-1 0 0 1 254.079 129.032)" fill="#FF0195"/>
<rect width="22.1198" height="22.1198" transform="matrix(-1 0 0 1 254.079 151.152)" fill="#FF0195"/>
<rect width="22.1198" height="22.1198" transform="matrix(-1 0 0 1 276.198 151.152)" fill="#FF0195"/>
<rect width="22.1198" height="22.1198" transform="matrix(-1 0 0 1 254.079 173.271)" fill="#FF0195"/>
<rect width="22.1198" height="22.1198" transform="matrix(-1 0 0 1 254.079 195.392)" fill="#FF0195"/>
<rect width="22.1198" height="22.1198" transform="matrix(-1 0 0 1 276.198 195.392)" fill="#FF0195"/>
<rect width="22.1198" height="22.1198" transform="matrix(-1 0 0 1 99.2402 195.392)" fill="#FF0195"/>
<rect width="22.1198" height="22.1198" transform="matrix(-1 0 0 1 77.1201 173.271)" fill="#FF0195"/>
<rect width="22.1198" height="22.1198" transform="matrix(-1 0 0 1 298.318 217.512)" fill="#FF0195"/>
<rect width="22.1198" height="22.1198" transform="matrix(-1 0 0 1 209.839 106.912)" fill="#FF0195"/>
<rect width="22.1198" height="22.1198" transform="matrix(-1 0 0 1 209.839 129.032)" fill="#FF0195"/>
<rect width="22.1198" height="22.1198" transform="matrix(-1 0 0 1 209.839 173.271)" fill="#FF0195"/>
<rect width="22.1198" height="22.1198" transform="matrix(-1 0 0 1 209.839 195.392)" fill="#FF0195"/>
<rect width="22.1198" height="22.1198" transform="matrix(-1 0 0 1 209.839 217.512)" fill="#FF0195"/>
<rect width="22.1198" height="22.1198" transform="matrix(-1 0 0 1 209.839 239.632)" fill="#FF0195"/>
<rect width="22.1198" height="22.1198" transform="matrix(-1 0 0 1 231.959 261.751)" fill="#FF0195"/>
<rect width="22.1198" height="22.1198" transform="matrix(-1 0 0 1 143.479 261.751)" fill="#FF0195"/>
<rect width="22.1198" height="22.1198" transform="matrix(-1 0 0 1 231.959 283.871)" fill="#FF0195"/>
<rect width="22.1198" height="22.1198" transform="matrix(-1 0 0 1 143.479 283.871)" fill="#FF0195"/>
<rect width="22.1198" height="22.1198" transform="matrix(-1 0 0 1 187.719 106.912)" fill="#FF0195"/>
<rect width="22.1198" height="22.1198" transform="matrix(-1 0 0 1 187.72 129.032)" fill="#FF0195"/>
<rect width="22.1198" height="22.1198" transform="matrix(-1 0 0 1 187.72 195.392)" fill="#FF0195"/>
<rect width="22.1198" height="22.1198" transform="matrix(-1 0 0 1 187.72 217.512)" fill="#FF0195"/>
<rect width="22.1198" height="22.1198" transform="matrix(-1 0 0 1 209.839 84.793)" fill="#FF0195"/>
<rect width="22.1198" height="22.1198" transform="matrix(-1 0 0 1 165.6 84.793)" fill="#FF0195"/>
<rect width="22.1198" height="22.1198" transform="matrix(-1 0 0 1 165.6 106.912)" fill="#FF0195"/>
<rect width="22.1198" height="22.1198" transform="matrix(-1 0 0 1 231.959 62.6729)" fill="#FF0195"/>
<rect width="22.1198" height="22.1198" transform="matrix(-1 0 0 1 254.079 62.6729)" fill="#FF0195"/>
<rect width="22.1198" height="22.1198" transform="matrix(-1 0 0 1 143.479 106.912)" fill="#FF0195"/>
<rect width="22.1198" height="22.1198" transform="matrix(-1 0 0 1 209.839 62.6729)" fill="#FF0195"/>
<rect width="22.1198" height="22.1198" transform="matrix(-1 0 0 1 165.6 62.6729)" fill="#FF0195"/>
<rect width="22.1198" height="22.1198" transform="matrix(-1 0 0 1 165.6 129.032)" fill="#FF0195"/>
<rect width="155" height="89" transform="matrix(-1 0 0 1 254 129)" fill="#FF0195"/>
<rect width="111" height="133" transform="matrix(-1 0 0 1 232 107)" fill="#FF0195"/>
<rect width="22.1198" height="22.1198" transform="matrix(-1 0 0 1 187.72 151.152)" fill="#FF0195"/>
<rect width="22.1198" height="22.1198" transform="matrix(-1 0 0 1 165.601 151.152)" fill="#FF0195"/>
<rect width="22.1198" height="22.1198" transform="matrix(-1 0 0 1 143.48 151.152)" fill="black"/>
<rect width="22.1198" height="22.1198" transform="matrix(-1 0 0 1 209.84 151.152)" fill="black"/>
<rect width="22.1198" height="22.1198" transform="matrix(-1 0 0 1 187.72 173.272)" fill="black"/>
<rect width="22.1198" height="22.1198" transform="matrix(-1 0 0 1 165.6 173.272)" fill="black"/>
<rect width="22.1198" height="22.1198" transform="matrix(-1 0 0 1 165.6 195.392)" fill="#FF0195"/>
<rect width="22.1198" height="22.1198" transform="matrix(-1 0 0 1 165.6 217.512)" fill="#FF0195"/>
<rect width="22.1198" height="22.1198" transform="matrix(-1 0 0 1 165.6 239.632)" fill="#FF0195"/>
<rect width="22.1198" height="22.1198" transform="matrix(-1 0 0 1 143.479 129.032)" fill="#FF0195"/>
<rect width="22.1198" height="22.1198" transform="matrix(-1 0 0 1 143.479 173.271)" fill="#FF0195"/>
<rect width="22.1198" height="22.1198" transform="matrix(-1 0 0 1 143.479 195.392)" fill="#FF0195"/>
<rect width="22.1198" height="22.1198" transform="matrix(-1 0 0 1 143.479 217.512)" fill="#FF0195"/>
<rect width="22.1198" height="22.1198" transform="matrix(-1 0 0 1 121.359 129.032)" fill="#FF0195"/>
<rect width="22.1198" height="22.1198" transform="matrix(-1 0 0 1 121.359 151.152)" fill="#FF0195"/>
<rect width="22.1198" height="22.1198" transform="matrix(-1 0 0 1 121.359 173.271)" fill="#FF0195"/>
<rect width="22.1198" height="22.1198" transform="matrix(-1 0 0 1 121.359 195.392)" fill="#FF0195"/>
</svg>
