<svg width="1140" height="370" viewBox="0 0 1140 370" fill="none" xmlns="http://www.w3.org/2000/svg">
<rect width="22.1198" height="22.1198" transform="matrix(-1 0 0 1 231.959 106.912)" fill="#FF0195"/>
<rect width="22.1198" height="22.1198" transform="matrix(-1 0 0 1 231.959 129.032)" fill="#FF0195"/>
<rect width="22.1198" height="22.1198" transform="matrix(-1 0 0 1 231.959 151.152)" fill="#FF0195"/>
<rect width="22.1198" height="22.1198" transform="matrix(-1 0 0 1 231.959 173.271)" fill="#FF0195"/>
<rect width="22.1198" height="22.1198" transform="matrix(-1 0 0 1 231.959 195.392)" fill="#FF0195"/>
<rect width="22.1198" height="22.1198" transform="matrix(-1 0 0 1 231.959 217.512)" fill="#FF0195"/>
<rect width="22.1198" height="22.1198" transform="matrix(-1 0 0 1 254.079 129.032)" fill="#FF0195"/>
<rect width="22.1198" height="22.1198" transform="matrix(-1 0 0 1 254.079 151.152)" fill="#FF0195"/>
<rect width="22.1198" height="22.1198" transform="matrix(-1 0 0 1 276.198 151.152)" fill="#FF0195"/>
<rect width="22.1198" height="22.1198" transform="matrix(-1 0 0 1 254.079 173.271)" fill="#FF0195"/>
<rect width="22.1198" height="22.1198" transform="matrix(-1 0 0 1 254.079 195.392)" fill="#FF0195"/>
<rect width="22.1198" height="22.1198" transform="matrix(-1 0 0 1 276.198 195.392)" fill="#FF0195"/>
<rect width="22.1198" height="22.1198" transform="matrix(-1 0 0 1 99.2402 195.392)" fill="#FF0195"/>
<rect width="22.1198" height="22.1198" transform="matrix(-1 0 0 1 77.1201 173.271)" fill="#FF0195"/>
<rect width="22.1198" height="22.1198" transform="matrix(-1 0 0 1 298.318 217.512)" fill="#FF0195"/>
<rect width="22.1198" height="22.1198" transform="matrix(-1 0 0 1 209.839 106.912)" fill="#FF0195"/>
<rect width="22.1198" height="22.1198" transform="matrix(-1 0 0 1 209.839 129.032)" fill="#FF0195"/>
<rect width="22.1198" height="22.1198" transform="matrix(-1 0 0 1 209.839 173.271)" fill="#FF0195"/>
<rect width="22.1198" height="22.1198" transform="matrix(-1 0 0 1 209.839 195.392)" fill="#FF0195"/>
<rect width="22.1198" height="22.1198" transform="matrix(-1 0 0 1 209.839 217.512)" fill="#FF0195"/>
<rect width="22.1198" height="22.1198" transform="matrix(-1 0 0 1 209.839 239.632)" fill="#FF0195"/>
<rect width="22.1198" height="22.1198" transform="matrix(-1 0 0 1 231.959 261.751)" fill="#FF0195"/>
<rect width="22.1198" height="22.1198" transform="matrix(-1 0 0 1 143.479 261.751)" fill="#FF0195"/>
<rect width="22.1198" height="22.1198" transform="matrix(-1 0 0 1 231.959 283.871)" fill="#FF0195"/>
<rect width="22.1198" height="22.1198" transform="matrix(-1 0 0 1 143.479 283.871)" fill="#FF0195"/>
<rect width="22.1198" height="22.1198" transform="matrix(-1 0 0 1 187.719 106.912)" fill="#FF0195"/>
<rect width="22.1198" height="22.1198" transform="matrix(-1 0 0 1 187.72 129.032)" fill="#FF0195"/>
<rect width="22.1198" height="22.1198" transform="matrix(-1 0 0 1 187.72 195.392)" fill="#FF0195"/>
<rect width="22.1198" height="22.1198" transform="matrix(-1 0 0 1 187.72 217.512)" fill="#FF0195"/>
<rect width="22.1198" height="22.1198" transform="matrix(-1 0 0 1 209.839 84.793)" fill="#FF0195"/>
<rect width="22.1198" height="22.1198" transform="matrix(-1 0 0 1 165.6 84.793)" fill="#FF0195"/>
<rect width="22.1198" height="22.1198" transform="matrix(-1 0 0 1 165.6 106.912)" fill="#FF0195"/>
<rect width="22.1198" height="22.1198" transform="matrix(-1 0 0 1 231.959 62.6729)" fill="#FF0195"/>
<rect width="22.1198" height="22.1198" transform="matrix(-1 0 0 1 254.079 62.6729)" fill="#FF0195"/>
<rect width="22.1198" height="22.1198" transform="matrix(-1 0 0 1 143.479 106.912)" fill="#FF0195"/>
<rect width="22.1198" height="22.1198" transform="matrix(-1 0 0 1 209.839 62.6729)" fill="#FF0195"/>
<rect width="22.1198" height="22.1198" transform="matrix(-1 0 0 1 165.6 62.6729)" fill="#FF0195"/>
<rect width="22.1198" height="22.1198" transform="matrix(-1 0 0 1 165.6 62.6729)" fill="#FF0195"/>
<rect width="22.1198" height="22.1198" transform="matrix(-1 0 0 1 165.6 62.6729)" fill="#FF0195"/>
<rect width="22.1198" height="22.1198" transform="matrix(-1 0 0 1 165.6 129.032)" fill="#FF0195"/>
<rect width="155" height="89" transform="matrix(-1 0 0 1 254 129)" fill="#FF0195"/>
<rect width="111" height="133" transform="matrix(-1 0 0 1 232 107)" fill="#FF0195"/>
<rect width="22.1198" height="22.1198" transform="matrix(-1 0 0 1 187.72 151.152)" fill="#FF0195"/>
<rect width="22.1198" height="22.1198" transform="matrix(-1 0 0 1 165.601 151.152)" fill="#FF0195"/>
<rect width="22.1198" height="22.1198" transform="matrix(-1 0 0 1 143.48 151.152)" fill="black"/>
<rect width="22.1198" height="22.1198" transform="matrix(-1 0 0 1 209.84 151.152)" fill="black"/>
<rect width="22.1198" height="22.1198" transform="matrix(-1 0 0 1 187.72 173.272)" fill="black"/>
<rect width="22.1198" height="22.1198" transform="matrix(-1 0 0 1 165.6 173.272)" fill="black"/>
<rect width="22.1198" height="22.1198" transform="matrix(-1 0 0 1 165.6 195.392)" fill="#FF0195"/>
<rect width="22.1198" height="22.1198" transform="matrix(-1 0 0 1 165.6 217.512)" fill="#FF0195"/>
<rect width="22.1198" height="22.1198" transform="matrix(-1 0 0 1 165.6 239.632)" fill="#FF0195"/>
<rect width="22.1198" height="22.1198" transform="matrix(-1 0 0 1 143.479 129.032)" fill="#FF0195"/>
<rect width="22.1198" height="22.1198" transform="matrix(-1 0 0 1 143.479 173.271)" fill="#FF0195"/>
<rect width="22.1198" height="22.1198" transform="matrix(-1 0 0 1 143.479 195.392)" fill="#FF0195"/>
<rect width="22.1198" height="22.1198" transform="matrix(-1 0 0 1 143.479 217.512)" fill="#FF0195"/>
<rect width="22.1198" height="22.1198" transform="matrix(-1 0 0 1 121.359 129.032)" fill="#FF0195"/>
<rect width="22.1198" height="22.1198" transform="matrix(-1 0 0 1 121.359 151.152)" fill="#FF0195"/>
<rect width="22.1198" height="22.1198" transform="matrix(-1 0 0 1 121.359 173.271)" fill="#FF0195"/>
<rect width="22.1198" height="22.1198" transform="matrix(-1 0 0 1 121.359 195.392)" fill="#FF0195"/>
<path d="M380.129 234.783C393.311 238.261 406.904 240 420.909 240C437.386 240 451.391 237.515 462.924 232.546C474.458 227.412 483.108 220.621 488.875 212.173C494.642 203.726 497.525 194.285 497.525 183.85C497.525 171.759 494.312 162.235 487.886 155.278C481.625 148.156 474.128 143.021 465.396 139.874C456.828 136.561 445.953 133.497 432.772 130.681C421.074 128.197 412.588 125.795 407.316 123.476C402.043 121.157 399.407 117.679 399.407 113.041C399.407 108.403 401.631 104.676 406.08 101.861C410.529 98.8793 417.614 97.3886 427.335 97.3886C442.823 97.3886 467.588 103.092 484.064 112.036L486.227 72.8075C475.411 66.2695 447.53 59.127 427.582 59.127C410.941 59.127 396.853 61.6115 385.32 66.5805C373.951 71.5496 365.383 78.3406 359.616 86.9536C353.849 95.4009 350.966 104.925 350.966 115.526C350.966 127.617 354.096 137.224 360.357 144.346C366.619 151.468 374.115 156.686 382.848 159.998C391.581 163.146 402.455 166.127 415.472 168.943C427.335 171.593 435.903 174.16 441.175 176.645C446.612 178.964 449.331 182.608 449.331 187.577C449.331 197.018 439.939 201.738 421.156 201.738C411.27 201.738 401.219 200.165 391.004 197.018C380.788 193.871 367.36 188.488 359.616 183.353L348 220.869C356.238 226.666 366.948 231.304 380.129 234.783Z" fill="white"/>
<path fill-rule="evenodd" clip-rule="evenodd" d="M633.199 70.5557C621.665 65.2554 608.072 62.6053 592.419 62.6053H513.332V236.522H562.267V191.055H592.419C608.072 191.055 621.665 188.488 633.199 183.353C644.733 178.053 653.63 170.599 659.891 160.992C666.152 151.385 669.283 140.039 669.283 126.954C669.283 113.869 666.152 102.523 659.891 92.9164C653.63 83.144 644.733 75.6904 633.199 70.5557ZM612.191 145.837C607.084 150.143 599.504 152.296 589.454 152.296H562.267V116.395L533.819 103.319V101.364H589.454C599.504 101.364 607.084 103.6 612.191 108.072C617.299 112.544 619.853 118.838 619.853 126.954C619.853 135.07 617.299 141.365 612.191 145.837Z" fill="white"/>
<path fill-rule="evenodd" clip-rule="evenodd" d="M783.395 202.732H710.239L696.646 236.522H646.722L723.091 62.6183H807.928L786.599 97.3669L787.098 98.5L847.901 236.522H796.989L783.395 202.732ZM769.061 166.458L746.817 110.805C739.148 129.992 723 166.458 723 166.458H769.061Z" fill="white"/>
<path d="M1013.41 144.346L1013.91 236.522H1058.89L1058.39 62.6053H1018.11L958.791 162.98L897.993 62.6053H857.707V236.522H902.936V146.83L947.176 219.378H968.925L1013.41 144.346Z" fill="white"/>
<path d="M855.256 269.151C855.824 269.108 856.319 269.038 856.813 269.038C870.91 269.034 885.006 268.908 899.099 269.138C902.178 269.19 905.444 270.044 908.268 271.318C918.01 275.709 920.46 287.39 912.167 294C912.9 294.52 913.585 294.993 914.258 295.483C921.757 300.966 921.853 311.312 914.418 316.925C910.827 319.639 906.65 320.848 902.239 320.878C887.058 320.991 871.877 320.948 856.7 320.991C855.56 320.995 854.996 320.722 855 319.422C855.039 302.882 855.039 286.337 855.052 269.797C855.052 269.658 855.134 269.524 855.256 269.151ZM867.748 310.84C868.255 310.913 868.541 310.991 868.823 310.991C879.142 310.996 889.465 311.009 899.784 310.97C900.851 310.965 901.948 310.77 902.98 310.489C905.44 309.821 906.845 308.196 907.027 305.985C907.235 303.428 906.303 301.326 903.965 300.29C902.438 299.613 900.638 299.288 898.955 299.271C889.214 299.18 879.467 299.223 869.726 299.232C869.101 299.232 868.476 299.319 867.743 299.375C867.748 303.233 867.748 306.952 867.748 310.84ZM867.743 289.271C875.434 289.271 882.864 289.271 890.294 289.271C893.325 289.271 896.357 289.345 899.385 289.232C902.23 289.128 904.299 286.983 904.412 284.256C904.525 281.604 902.707 279.58 899.814 279.176C899.103 279.077 898.374 279.059 897.654 279.059C888.415 279.051 879.177 279.051 869.938 279.059C869.24 279.059 868.537 279.137 867.739 279.185C867.743 282.579 867.743 285.791 867.743 289.271Z" fill="white"/>
<path d="M543.12 302.266C546.56 304.112 549.969 305.946 553.647 307.918C552.984 308.69 552.515 309.283 551.995 309.834C542.695 319.751 530.941 322.681 517.846 321.793C510.724 321.307 504.075 319.322 497.968 315.599C483.303 306.661 481.82 286.285 495.157 275.462C504.222 268.106 514.897 266.307 526.204 267.217C536.692 268.063 545.489 272.401 552.559 280.208C553.088 280.793 553.569 281.417 554.328 282.336C550.542 283.684 546.998 285.028 543.385 286.137C542.86 286.298 541.923 285.448 541.299 284.919C532.511 277.499 522.531 275.258 511.505 278.383C503.737 280.581 498.965 286.462 498.644 293.506C498.328 300.515 501.898 306.18 508.612 309.322C519.134 314.242 532.468 312.174 540.986 304.294C541.676 303.653 542.344 303.003 543.12 302.266Z" fill="white"/>
<path d="M728.036 269C732.356 269 736.303 269 740.497 269C740.558 269.902 740.666 270.734 740.666 271.562C740.679 281.093 740.784 290.625 740.632 300.152C740.549 305.188 742.826 308.483 747.337 310.151C755.353 313.121 763.49 313.138 771.497 310.147C776.073 308.439 778.38 305.115 778.272 299.97C778.077 290.516 778.215 281.054 778.215 271.596C778.215 270.807 778.215 270.019 778.215 269.069C782.41 269.069 786.478 269.069 790.82 269.069C790.82 269.893 790.82 270.66 790.82 271.427C790.82 281.609 790.694 291.791 790.863 301.968C790.976 308.669 787.975 313.428 782.522 316.87C776.997 320.355 770.794 321.638 764.388 322.11C757.569 322.613 750.768 322.366 744.219 320.264C741.226 319.301 738.255 317.992 735.609 316.315C730.5 313.081 727.936 308.331 728.001 302.128C728.114 291.877 728.032 281.622 728.032 271.371C728.036 270.656 728.036 269.949 728.036 269Z" fill="white"/>
<path d="M627.613 310.858C641.107 310.858 654.171 310.858 667.578 310.858C667.578 313.948 667.622 316.874 667.517 319.8C667.504 320.151 666.715 320.684 666.225 320.762C665.236 320.914 664.208 320.814 663.197 320.814C647.878 320.814 632.554 320.801 617.234 320.836C615.807 320.84 614.996 320.706 615 318.898C615.065 302.791 615.035 286.689 615.043 270.582C615.043 270.097 615.134 269.607 615.195 269C619.307 269 623.315 269 627.609 269C627.613 282.901 627.613 296.715 627.613 310.858Z" fill="white"/>
</svg>
